<?xml version="1.0" standalone="no"?>
<!DOCTYPE svg PUBLIC "-//W3C//DTD SVG 20010904//EN"
 "http://www.w3.org/TR/2001/REC-SVG-20010904/DTD/svg10.dtd">
<svg version="1.0" xmlns="http://www.w3.org/2000/svg"
 width="512.000000pt" height="512.000000pt" viewBox="0 0 512.000000 512.000000"
 preserveAspectRatio="xMidYMid meet">

<g transform="translate(0.000000,512.000000) scale(0.100000,-0.100000)"
fill="#000000" stroke="none">
<path d="M3228 4910 c-95 -12 -221 -46 -310 -85 -171 -74 -359 -227 -457 -373
-33 -49 -47 -62 -59 -56 -49 20 -157 45 -229 53 -348 36 -682 -146 -849 -462
-31 -59 -39 -68 -58 -63 -53 14 -208 18 -296 6 -828 -108 -1243 -1030 -771
-1713 61 -88 192 -217 280 -277 92 -62 236 -127 348 -158 l98 -27 1710 0 1710
0 90 28 c311 97 537 311 634 602 77 234 64 472 -38 691 -54 115 -113 195 -213
290 -113 105 -194 152 -381 217 -15 6 -17 14 -10 59 4 29 8 121 8 203 -1 119
-5 168 -22 236 -103 412 -431 728 -843 813 -96 19 -256 27 -342 16z m222 -200
c402 -49 717 -349 781 -744 16 -102 7 -280 -20 -373 -27 -94 -26 -107 7 -143
22 -26 42 -34 117 -50 241 -52 444 -223 533 -450 38 -98 46 -143 46 -265 1
-137 -15 -208 -69 -322 -86 -178 -244 -314 -443 -382 l-77 -26 -1685 0 c-1616
0 -1688 1 -1754 19 -339 92 -579 335 -663 672 -25 103 -23 314 5 419 30 109
100 249 172 340 112 140 293 257 475 306 107 29 306 32 416 6 106 -25 142 -8
169 78 47 151 190 319 330 387 102 50 187 70 295 70 108 0 204 -21 285 -62 98
-49 150 -38 192 43 81 161 229 307 393 389 101 51 256 90 385 97 14 0 64 -4
110 -9z"/>
<path d="M1521 1403 c-28 -24 -141 -295 -141 -340 0 -48 45 -93 94 -93 59 0
87 37 150 192 31 76 56 152 56 169 0 46 -47 89 -98 89 -23 0 -49 -7 -61 -17z"/>
<path d="M2313 1402 c-14 -10 -47 -77 -84 -166 -49 -120 -60 -156 -55 -185 11
-69 80 -100 145 -66 22 11 37 34 61 92 18 43 45 109 61 147 38 89 38 129 0
167 -35 34 -92 39 -128 11z"/>
<path d="M3098 1393 c-26 -29 -138 -291 -138 -324 0 -50 49 -99 99 -99 37 0
72 23 91 59 29 58 108 256 110 277 5 42 -1 62 -26 88 -38 37 -100 37 -136 -1z"/>
<path d="M3895 1398 c-37 -33 -148 -309 -140 -348 9 -41 58 -80 100 -80 55 0
79 32 145 195 58 140 61 152 51 187 -7 20 -21 44 -34 53 -32 23 -91 19 -122
-7z"/>
<path d="M1219 645 c-15 -8 -35 -34 -46 -57 -35 -74 -113 -274 -113 -289 0
-30 39 -77 74 -89 28 -9 41 -9 62 2 41 20 58 50 120 201 60 150 63 176 20 216
-30 28 -83 35 -117 16z"/>
<path d="M2001 634 c-37 -34 -143 -279 -143 -332 0 -44 24 -78 67 -92 30 -10
41 -9 72 7 35 17 42 29 100 168 34 83 62 162 63 177 0 39 -46 87 -91 94 -30 5
-41 1 -68 -22z"/>
<path d="M2815 651 c-36 -15 -53 -44 -109 -183 -63 -155 -68 -193 -31 -231 36
-35 70 -41 113 -20 34 17 42 29 96 158 74 177 78 202 40 244 -31 33 -76 46
-109 32z"/>
<path d="M3605 651 c-11 -5 -27 -17 -36 -27 -24 -28 -129 -292 -129 -325 0
-34 41 -85 75 -93 36 -9 91 17 109 52 40 78 116 278 116 306 -1 66 -72 112
-135 87z"/>
</g>
</svg>
