<?xml version="1.0" standalone="no"?>
<!DOCTYPE svg PUBLIC "-//W3C//DTD SVG 20010904//EN"
 "http://www.w3.org/TR/2001/REC-SVG-20010904/DTD/svg10.dtd">
<svg version="1.0" xmlns="http://www.w3.org/2000/svg"
 width="512.000000pt" height="512.000000pt" viewBox="0 0 512.000000 512.000000"
 preserveAspectRatio="xMidYMid meet">

<g transform="translate(0.000000,512.000000) scale(0.100000,-0.100000)"
fill="#00462a" stroke="none">
<path d="M2363 5109 c-848 -99 -1497 -799 -1530 -1649 -12 -299 48 -576 182
-840 29 -58 377 -665 772 -1350 531 -918 727 -1249 746 -1260 24 -13 30 -13
54 0 19 11 215 342 746 1260 395 685 743 1292 772 1350 134 264 194 541 182
840 -27 707 -493 1337 -1158 1564 -242 83 -521 114 -766 85z m525 -157 c478
-104 864 -400 1086 -831 172 -337 223 -694 147 -1052 -26 -125 -63 -234 -117
-348 -44 -94 -1434 -2511 -1444 -2511 -10 0 -1400 2417 -1444 2511 -212 447
-201 950 30 1400 163 317 420 566 735 713 148 69 296 111 484 140 17 2 120 3
230 1 154 -2 221 -8 293 -23z"/>
<path d="M2360 4705 c-547 -94 -967 -491 -1085 -1025 -22 -102 -31 -346 -16
-451 43 -298 175 -555 393 -765 223 -215 496 -339 802 -363 382 -29 740 98
1014 363 218 210 350 467 393 765 15 105 6 349 -16 451 -135 612 -675 1045
-1297 1039 -62 -1 -147 -7 -188 -14z m390 -137 c86 -12 252 -63 331 -103 222
-112 425 -316 537 -540 38 -78 76 -190 98 -290 21 -97 22 -347 2 -443 l-13
-63 -334 471 c-217 306 -342 475 -357 481 -15 5 -33 5 -47 -2 -13 -6 -108
-131 -212 -279 -105 -148 -192 -269 -195 -269 -3 0 -90 121 -195 269 -194 275
-214 297 -261 279 -12 -4 -163 -208 -355 -479 l-334 -471 -13 63 c-20 96 -19
346 2 443 22 100 60 212 98 290 112 224 315 428 537 540 119 59 291 104 456
118 52 5 160 -1 255 -15z m-499 -840 c49 -69 89 -130 89 -135 0 -4 -14 -24
-29 -43 l-29 -35 -65 63 c-84 80 -97 80 -180 2 l-64 -59 -33 34 -33 34 34 49
c19 26 68 96 109 155 l75 107 19 -22 c10 -13 58 -80 107 -150z m846 27 c54
-77 102 -145 106 -152 5 -8 -6 -27 -27 -50 l-35 -38 -63 63 c-41 40 -72 62
-87 62 -14 0 -45 -22 -84 -59 l-62 -59 -38 32 -39 33 112 157 c61 87 113 156
115 154 1 -2 47 -66 102 -143z m-480 -545 c92 -129 175 -245 186 -257 42 -47
117 -19 117 43 0 12 -61 107 -135 212 -74 105 -135 197 -135 204 1 7 10 24 20
37 23 27 21 27 102 -46 63 -58 83 -56 158 13 l61 57 63 -62 c86 -82 106 -82
178 -1 29 33 56 60 59 60 4 0 87 -113 184 -250 l177 -250 -17 -42 c-69 -173
-251 -388 -426 -503 -393 -259 -905 -259 -1298 0 -175 115 -357 330 -426 503
l-17 42 177 250 c97 137 180 250 184 250 5 0 15 -7 22 -17 28 -33 111 -93 131
-93 11 0 45 25 77 55 32 30 62 55 67 55 5 0 36 -27 69 -60 82 -83 104 -83 176
4 48 57 55 62 67 47 7 -9 88 -122 179 -251z"/>
</g>
</svg>
