<?xml version="1.0" standalone="no"?>
<!DOCTYPE svg PUBLIC "-//W3C//DTD SVG 20010904//EN"
 "http://www.w3.org/TR/2001/REC-SVG-20010904/DTD/svg10.dtd">
<svg version="1.0" xmlns="http://www.w3.org/2000/svg"
 width="512.000000pt" height="512.000000pt" viewBox="0 0 512.000000 512.000000"
 preserveAspectRatio="xMidYMid meet">

<g transform="translate(0.000000,512.000000) scale(0.100000,-0.100000)"
fill="#000000" stroke="none">
<path d="M695 4771 c-221 -63 -365 -258 -365 -494 0 -54 -3 -67 -15 -67 -25 0
-65 -47 -65 -75 0 -14 11 -37 25 -50 l24 -25 728 0 c780 1 752 -1 771 51 16
42 -18 98 -59 99 -14 0 -17 16 -21 98 -3 82 -8 107 -34 162 -50 107 -146 188
-259 220 -68 19 -169 17 -232 -4 l-52 -17 -33 24 c-53 40 -116 68 -187 83 -86
18 -152 17 -226 -5z m227 -151 c43 -13 81 -34 117 -65 70 -60 90 -64 158 -30
108 55 227 33 307 -57 52 -57 66 -96 66 -190 l0 -68 -545 0 -545 0 0 58 c0
117 40 213 118 284 93 84 200 106 324 68z"/>
<path d="M2182 4273 c-11 -10 -78 -130 -150 -268 -233 -450 -216 -412 -202
-446 24 -56 84 -66 122 -20 12 15 79 136 148 269 69 132 129 237 133 233 9 -9
627 -1193 627 -1201 0 -4 -163 -108 -284 -182 -6 -3 -80 45 -164 108 -118 88
-160 114 -184 114 -24 0 -66 -26 -183 -114 l-152 -114 -144 88 c-79 49 -145
93 -147 99 -2 6 47 106 108 223 61 117 114 224 116 238 13 65 -78 107 -123 58
-11 -13 -355 -665 -764 -1450 l-744 -1428 -77 0 c-71 0 -78 -2 -97 -26 -34
-43 -26 -86 20 -109 43 -23 4995 -23 5038 0 46 23 54 66 20 109 -19 24 -26 26
-97 26 l-77 0 -859 1638 c-472 900 -867 1646 -877 1656 -10 11 -31 19 -49 19
-18 0 -39 -8 -49 -19 -11 -10 -76 -128 -146 -262 -81 -155 -131 -240 -137
-234 -5 5 -124 230 -264 498 -140 269 -262 495 -271 502 -24 17 -67 15 -91 -5z
m1225 -1223 c145 -274 264 -504 265 -511 2 -6 -42 -40 -98 -74 l-100 -63 -162
106 -162 105 -118 225 c-64 124 -121 233 -126 243 -6 13 22 75 110 243 65 124
121 226 124 226 3 0 123 -225 267 -500z m-1023 -450 c104 -78 155 -110 175
-110 18 0 90 38 200 106 95 58 174 105 176 103 2 -3 81 -153 175 -334 95 -182
183 -340 196 -352 42 -38 92 -27 114 27 12 28 9 37 -54 160 -37 71 -64 130
-61 130 3 0 36 -20 73 -45 37 -25 78 -45 93 -45 14 0 77 32 146 75 67 41 125
75 130 75 7 0 1003 -1889 1003 -1904 0 -3 -400 -6 -890 -6 l-890 0 0 90 0 90
128 0 c137 0 167 8 190 50 13 23 9 38 -48 185 -34 88 -64 166 -67 173 -4 8 7
12 35 12 54 0 86 27 85 71 -2 42 -327 777 -355 802 -24 20 -67 22 -91 5 -24
-18 -357 -771 -357 -808 0 -41 34 -70 82 -70 21 0 38 -4 38 -8 0 -5 -27 -75
-60 -157 -96 -238 -90 -248 126 -253 l145 -4 -3 -86 -3 -87 -587 -3 -588 -2 0
90 0 90 124 0 c164 0 206 16 206 79 0 11 -27 88 -60 171 -33 83 -60 155 -60
160 0 6 16 10 35 10 42 0 85 36 85 72 0 30 -327 767 -353 796 -26 28 -77 30
-101 3 -22 -24 -356 -775 -356 -800 0 -35 34 -64 83 -70 l45 -6 -64 -160 c-74
-184 -77 -212 -20 -239 26 -12 65 -16 160 -16 l126 0 0 -90 0 -90 -561 0
c-530 0 -561 1 -554 17 10 27 1136 2187 1145 2196 4 5 84 -39 179 -97 112 -70
181 -106 199 -106 21 0 68 29 173 109 79 60 149 110 155 110 5 1 76 -48 158
-109z m-709 -1131 l104 -234 -42 -7 c-47 -8 -77 -37 -77 -74 0 -13 27 -91 60
-174 33 -83 60 -155 60 -160 0 -6 -80 -10 -215 -10 -118 0 -215 4 -215 8 0 5
27 75 60 157 33 82 60 163 60 180 0 40 -25 63 -77 73 l-40 7 106 237 c57 131
106 236 108 234 2 -2 51 -109 108 -237z m1425 -231 c0 -4 -13 -8 -29 -8 -32 0
-77 -31 -86 -60 -4 -12 18 -82 59 -185 36 -92 66 -168 66 -171 0 -2 -97 -4
-215 -4 -161 0 -215 3 -215 12 0 7 27 80 60 164 33 83 60 161 60 172 0 34 -32
63 -78 69 -23 3 -42 7 -42 8 0 1 39 90 86 196 48 107 95 214 106 239 l19 44
105 -234 c57 -129 104 -238 104 -242z"/>
<path d="M3925 4192 c-216 -65 -347 -234 -362 -469 -5 -70 -9 -93 -20 -93 -23
0 -63 -47 -63 -75 0 -14 11 -37 25 -50 l24 -25 729 0 c710 0 729 0 749 20 31
28 36 55 18 90 -10 20 -26 33 -45 36 l-28 6 -4 97 c-3 82 -7 105 -34 161 -51
107 -146 188 -259 220 -68 19 -169 17 -231 -3 l-51 -18 -51 35 c-115 77 -274
105 -397 68z m257 -160 c24 -10 66 -38 93 -61 68 -56 85 -59 152 -25 101 51
223 32 302 -47 52 -52 71 -102 71 -191 l0 -78 -546 0 -547 0 6 86 c12 167 102
288 247 330 59 17 168 10 222 -14z"/>
</g>
</svg>
