<?xml version="1.0" standalone="no"?>
<!DOCTYPE svg PUBLIC "-//W3C//DTD SVG 20010904//EN"
 "http://www.w3.org/TR/2001/REC-SVG-20010904/DTD/svg10.dtd">
<svg version="1.0" xmlns="http://www.w3.org/2000/svg"
 width="512.000000pt" height="512.000000pt" viewBox="0 0 512.000000 512.000000"
 preserveAspectRatio="xMidYMid meet">

<g transform="translate(0.000000,512.000000) scale(0.100000,-0.100000)"
fill="#000000" stroke="none">
<path d="M3225 4910 c-96 -13 -209 -43 -297 -79 -159 -66 -345 -212 -439 -342
-79 -110 -69 -102 -112 -84 -113 47 -338 62 -471 31 -261 -61 -469 -226 -590
-464 -23 -46 -31 -53 -49 -48 -12 3 -62 9 -112 12 -237 17 -512 -66 -711 -214
-477 -355 -584 -1014 -245 -1505 61 -88 192 -217 280 -277 92 -62 236 -127
348 -158 l98 -27 1700 0 c1580 0 1705 1 1767 17 362 93 615 347 705 706 26
102 23 332 -6 437 -45 168 -134 318 -262 441 -111 106 -204 163 -339 209 -61
21 -65 24 -63 51 2 16 5 94 9 174 5 125 3 159 -16 249 -52 254 -184 474 -379
631 -226 183 -540 275 -816 240z m316 -215 c351 -72 631 -369 690 -729 16
-102 7 -280 -20 -373 -12 -40 -21 -82 -21 -94 0 -29 62 -89 92 -89 13 0 57 -9
98 -21 331 -91 559 -407 537 -744 -7 -114 -27 -189 -77 -290 -69 -139 -185
-255 -325 -325 -162 -81 -5 -75 -1880 -75 -1612 0 -1673 1 -1745 19 -175 45
-311 123 -435 250 -116 119 -190 254 -232 422 -26 103 -23 314 6 419 84 314
334 564 646 646 108 29 307 31 416 6 109 -25 141 -9 173 88 52 158 180 305
330 379 101 49 184 68 296 68 107 0 188 -18 284 -62 112 -52 145 -39 215 89
44 78 133 184 200 236 223 174 481 236 752 180z"/>
<path d="M1646 1389 c-26 -30 -26 -33 -26 -196 l0 -165 29 -29 c40 -40 89 -40
133 0 l33 29 3 138 c2 75 1 153 -3 172 -10 53 -45 82 -99 82 -37 0 -48 -5 -70
-31z"/>
<path d="M2439 1391 l-29 -29 0 -166 c0 -157 1 -166 23 -191 14 -17 36 -28 63
-32 36 -5 46 -1 75 25 l34 30 3 152 c4 162 -3 198 -42 225 -36 26 -94 19 -127
-14z"/>
<path d="M3233 1396 l-28 -24 -3 -157 c-4 -174 3 -207 49 -230 54 -28 117 -8
138 43 9 20 11 80 9 187 l-3 157 -28 24 c-19 16 -40 24 -67 24 -27 0 -48 -8
-67 -24z"/>
<path d="M1668 645 c-15 -8 -32 -24 -38 -35 -6 -10 -10 -90 -10 -183 0 -163 0
-165 25 -190 34 -34 67 -40 110 -23 54 23 65 60 65 216 0 173 -17 215 -92 226
-19 2 -44 -2 -60 -11z"/>
<path d="M2461 647 c-44 -26 -50 -51 -51 -219 l0 -158 29 -32 c33 -37 82 -43
125 -14 42 27 48 57 44 223 -3 148 -4 153 -29 178 -30 31 -85 41 -118 22z"/>
<path d="M3234 626 l-34 -34 0 -161 0 -161 29 -32 c41 -47 101 -47 142 0 l29
32 0 161 0 161 -34 34 c-46 46 -86 46 -132 0z"/>
</g>
</svg>
