<?xml version="1.0" standalone="no"?>
<!DOCTYPE svg PUBLIC "-//W3C//DTD SVG 20010904//EN"
 "http://www.w3.org/TR/2001/REC-SVG-20010904/DTD/svg10.dtd">
<svg version="1.0" xmlns="http://www.w3.org/2000/svg"
 width="512.000000pt" height="512.000000pt" viewBox="0 0 512.000000 512.000000"
 preserveAspectRatio="xMidYMid meet">

<g transform="translate(0.000000,512.000000) scale(0.100000,-0.100000)"
fill="#000000" stroke="none">
<path d="M3172 4906 c-159 -31 -299 -87 -429 -173 -82 -54 -224 -193 -279
-273 l-46 -67 -47 18 c-68 25 -202 49 -280 49 -326 0 -646 -201 -775 -487
l-18 -42 -137 6 c-203 9 -356 -20 -530 -98 -151 -68 -327 -214 -425 -353 -344
-483 -241 -1156 231 -1510 131 -98 267 -160 443 -202 70 -17 181 -18 1685 -22
1624 -3 1729 -1 1859 33 263 69 489 258 607 509 65 140 82 218 83 386 0 159
-11 220 -64 358 -61 160 -203 333 -349 427 -73 47 -196 105 -255 119 -25 6
-28 10 -22 39 14 73 18 288 7 369 -62 425 -387 785 -809 895 -121 31 -336 40
-450 19z m421 -220 c329 -97 565 -353 632 -685 23 -111 16 -294 -14 -405 -13
-47 -19 -90 -16 -107 8 -36 46 -67 94 -74 294 -49 530 -260 608 -545 21 -78
24 -280 4 -350 -63 -231 -203 -401 -411 -499 -148 -70 -33 -66 -1865 -66
-1533 0 -1655 1 -1717 17 -353 91 -601 335 -685 675 -24 98 -24 304 1 403 82
325 316 568 638 661 103 30 288 37 395 15 149 -30 168 -21 213 96 98 257 317
420 585 435 111 6 204 -12 314 -61 43 -20 86 -36 95 -36 36 0 73 30 100 82
109 203 288 357 497 428 167 57 371 63 532 16z"/>
<path d="M2507 1489 c-33 -20 -47 -64 -47 -157 l0 -88 -54 -23 c-29 -12 -71
-37 -93 -56 l-39 -33 -77 44 c-42 24 -89 47 -104 50 -38 7 -94 -31 -107 -73
-15 -56 7 -88 97 -141 l79 -47 2 -113 1 -113 -78 -46 c-112 -65 -135 -126 -72
-189 38 -38 86 -32 178 20 l78 45 52 -40 c29 -21 70 -45 92 -52 l40 -14 5 -99
c7 -114 12 -129 51 -149 36 -19 62 -19 98 0 39 20 44 35 51 149 l5 99 40 14
c22 7 63 31 92 52 l52 40 78 -45 c92 -52 140 -58 178 -20 63 63 40 124 -72
189 l-78 46 1 113 2 113 80 48 c70 41 83 53 92 85 15 48 1 86 -42 112 -43 27
-70 21 -165 -34 l-77 -44 -39 33 c-22 19 -64 44 -93 56 l-54 23 0 88 c0 127
-25 168 -102 168 -18 0 -41 -5 -51 -11z m141 -458 c183 -94 129 -365 -75 -379
-219 -15 -294 278 -98 381 42 23 127 21 173 -2z"/>
<path d="M1259 1432 l-34 -30 -3 -144 c-4 -159 5 -209 43 -234 14 -9 41 -16
62 -16 29 0 43 7 65 31 l28 31 0 165 c0 156 -1 165 -23 190 -14 17 -36 28 -63
32 -36 5 -46 1 -75 -25z"/>
<path d="M3754 1450 c-48 -19 -54 -43 -54 -220 l0 -166 29 -28 c34 -33 87 -38
126 -12 38 25 47 75 43 234 l-3 144 -33 29 c-33 30 -67 36 -108 19z"/>
<path d="M1255 666 c-32 -32 -37 -68 -33 -230 l3 -138 33 -29 c44 -40 93 -40
133 0 l29 29 0 167 0 167 -29 29 c-39 38 -100 41 -136 5z"/>
<path d="M3729 661 l-29 -29 0 -167 0 -167 29 -29 c40 -40 89 -40 133 0 l33
29 3 138 c2 75 1 153 -3 172 -15 80 -108 110 -166 53z"/>
</g>
</svg>
