<?xml version="1.0" standalone="no"?>
<!DOCTYPE svg PUBLIC "-//W3C//DTD SVG 20010904//EN"
 "http://www.w3.org/TR/2001/REC-SVG-20010904/DTD/svg10.dtd">
<svg version="1.0" xmlns="http://www.w3.org/2000/svg"
 width="512.000000pt" height="512.000000pt" viewBox="0 0 512.000000 512.000000"
 preserveAspectRatio="xMidYMid meet">

<g transform="translate(0.000000,512.000000) scale(0.100000,-0.100000)"
fill="#000000" stroke="none">
<path d="M3172 4906 c-159 -31 -299 -87 -429 -173 -82 -54 -224 -193 -279
-273 l-46 -67 -47 18 c-68 25 -202 49 -280 49 -325 0 -646 -202 -774 -485
l-18 -40 -192 -1 c-163 0 -203 -3 -267 -21 -425 -118 -709 -406 -812 -820 -26
-107 -31 -337 -9 -448 77 -388 359 -711 726 -833 178 -60 61 -56 1820 -60
1624 -3 1729 -1 1859 33 263 69 489 258 607 509 65 140 82 218 83 386 0 159
-11 220 -64 358 -61 160 -203 333 -349 427 -73 47 -196 105 -255 119 -25 6
-28 10 -22 39 14 73 18 288 7 369 -62 425 -387 785 -809 895 -121 31 -336 40
-450 19z m421 -220 c329 -97 565 -353 632 -685 23 -111 16 -294 -14 -405 -13
-47 -19 -90 -16 -107 8 -36 46 -67 94 -74 294 -49 530 -260 608 -545 21 -78
24 -280 4 -350 -63 -231 -203 -401 -411 -499 -148 -70 -33 -66 -1865 -66
-1533 0 -1655 1 -1717 17 -352 91 -601 336 -685 675 -24 98 -24 304 1 403 82
325 316 568 638 661 103 30 288 37 395 15 149 -30 168 -21 213 96 98 257 317
420 585 435 111 6 204 -12 314 -61 43 -20 86 -36 95 -36 36 0 73 30 100 82
130 242 360 413 623 463 117 22 294 14 406 -19z"/>
<path d="M869 1471 c-28 -29 -29 -32 -29 -129 l0 -99 -45 -18 c-25 -9 -69 -33
-97 -52 l-52 -36 -41 22 c-118 66 -134 73 -164 66 -41 -9 -81 -58 -81 -100 0
-44 22 -68 109 -119 l73 -42 0 -113 0 -114 -71 -39 c-39 -22 -80 -51 -91 -65
-30 -38 -26 -88 9 -124 44 -44 88 -40 184 16 l78 46 41 -35 c23 -20 64 -44 92
-55 l51 -19 5 -106 c6 -122 18 -144 87 -153 35 -5 45 -1 74 25 34 30 34 31 37
131 l4 101 51 22 c28 12 70 36 93 54 l41 32 74 -44 c91 -53 142 -58 183 -18
20 20 26 36 26 68 -1 53 -10 64 -100 119 l-74 45 -1 114 -1 115 61 33 c91 49
115 76 115 125 0 51 -20 80 -64 95 -39 13 -64 5 -160 -52 l-60 -36 -46 37
c-26 21 -68 45 -93 55 l-47 18 0 83 c0 46 -4 95 -9 108 -27 71 -109 90 -162
38z m182 -456 c49 -35 80 -88 87 -150 6 -62 -35 -146 -90 -182 -119 -79 -292
-1 -306 136 -7 75 5 118 46 163 50 55 84 69 159 65 50 -2 71 -9 104 -32z"/>
<path d="M2507 1489 c-33 -20 -47 -64 -47 -157 l0 -88 -54 -23 c-29 -12 -71
-37 -93 -56 l-39 -33 -77 44 c-42 24 -89 47 -104 50 -38 7 -94 -31 -107 -73
-15 -56 7 -88 97 -141 l79 -47 2 -113 1 -113 -78 -46 c-112 -65 -135 -126 -72
-189 38 -38 86 -32 178 20 l78 45 52 -40 c29 -21 70 -45 92 -52 l40 -14 5 -99
c7 -114 12 -129 51 -149 36 -19 62 -19 98 0 39 20 44 35 51 149 l5 99 40 14
c22 7 63 31 92 52 l52 40 78 -45 c92 -52 140 -58 178 -20 63 63 40 124 -72
189 l-78 46 1 113 2 113 80 48 c70 41 83 53 92 85 15 48 1 86 -42 112 -43 27
-70 21 -165 -34 l-77 -44 -39 33 c-22 19 -64 44 -93 56 l-54 23 0 88 c0 127
-25 168 -102 168 -18 0 -41 -5 -51 -11z m141 -458 c183 -94 129 -365 -75 -379
-219 -15 -294 278 -98 381 42 23 127 21 173 -2z"/>
<path d="M4121 1479 c-33 -31 -41 -61 -41 -154 l0 -83 -47 -18 c-25 -10 -67
-34 -93 -55 l-46 -37 -60 36 c-96 57 -121 65 -160 52 -44 -15 -64 -44 -64 -95
0 -49 24 -76 115 -125 l61 -33 -1 -115 -1 -114 -74 -45 c-90 -55 -99 -66 -100
-119 0 -32 6 -48 26 -68 41 -40 92 -35 183 18 l74 44 41 -32 c23 -18 65 -42
93 -54 l51 -22 4 -101 c3 -100 3 -101 37 -131 29 -26 39 -30 74 -25 69 9 81
31 87 153 l5 106 51 19 c28 11 69 35 92 55 l41 35 78 -46 c96 -56 140 -60 184
-16 35 36 39 86 9 124 -11 14 -52 43 -91 65 l-71 39 0 113 0 113 78 47 c107
63 131 116 79 178 -48 57 -71 54 -220 -29 l-41 -22 -52 36 c-28 19 -72 43 -97
52 l-45 18 0 99 c0 97 -1 100 -29 129 -37 36 -95 40 -130 8z m142 -442 c45
-19 105 -89 113 -132 19 -104 -19 -188 -106 -232 -101 -52 -215 -12 -267 94
-33 68 -28 137 14 198 52 74 163 106 246 72z"/>
</g>
</svg>
